<?xml version="1.0" encoding="UTF-8" standalone="no"?>
<!DOCTYPE svg PUBLIC "-//W3C//DTD SVG 1.1//EN"
 "http://www.w3.org/Graphics/SVG/1.1/DTD/svg11.dtd">
<!-- Generated by graphviz version 2.40.1 (20161225.0304)
 -->
<!-- Title: dependencies Pages: 1 -->
<svg width="504pt" height="211pt"
 viewBox="0.00 0.00 504.00 211.00" xmlns="http://www.w3.org/2000/svg" xmlns:xlink="http://www.w3.org/1999/xlink">
<g id="graph0" class="graph" transform="scale(1 1) rotate(0) translate(4 207)">
<title>dependencies</title>
<polygon fill="#ffffff" stroke="transparent" points="-4,4 -4,-207 500,-207 500,4 -4,4"/>
<text text-anchor="start" x="227.0091" y="-42.4" font-family="sans-serif" font-weight="bold" font-size="14.00" fill="#000000">Legend</text>
<polygon fill="#ffffb3" stroke="transparent" points="14,-10 14,-30 34,-30 34,-10 14,-10"/>
<text text-anchor="start" x="37.629" y="-15.4" font-family="sans-serif" font-size="14.00" fill="#000000"> &#160;Declarations</text>
<polygon fill="#8dd3c7" stroke="transparent" points="127,-10 127,-30 147,-30 147,-10 127,-10"/>
<text text-anchor="start" x="150.7251" y="-15.4" font-family="sans-serif" font-size="14.00" fill="#000000"> &#160;Module</text>
<polygon fill="#80b1d3" stroke="transparent" points="213,-10 213,-30 233,-30 233,-10 213,-10"/>
<text text-anchor="start" x="236.7812" y="-15.4" font-family="sans-serif" font-size="14.00" fill="#000000"> &#160;Bootstrap</text>
<polygon fill="#fdb462" stroke="transparent" points="310,-10 310,-30 330,-30 330,-10 310,-10"/>
<text text-anchor="start" x="333.6732" y="-15.4" font-family="sans-serif" font-size="14.00" fill="#000000"> &#160;Providers</text>
<polygon fill="#fb8072" stroke="transparent" points="406,-10 406,-30 426,-30 426,-10 406,-10"/>
<text text-anchor="start" x="429.7258" y="-15.4" font-family="sans-serif" font-size="14.00" fill="#000000"> &#160;Exports</text>
<g id="clust1" class="cluster">
<title>cluster_Tab1PageModule</title>
<polygon fill="none" stroke="#000000" stroke-dasharray="1,5" points="129,-70 129,-195 367,-195 367,-70 129,-70"/>
</g>
<g id="clust2" class="cluster">
<title>cluster_Tab1PageModule_declarations</title>
<polygon fill="none" stroke="#000000" points="137,-78 137,-130 359,-130 359,-78 137,-78"/>
</g>
<!-- ModalNuevaPage -->
<g id="node1" class="node">
<title>ModalNuevaPage</title>
<polygon fill="#ffffb3" stroke="#000000" points="351.2978,-122 234.7022,-122 234.7022,-86 351.2978,-86 351.2978,-122"/>
<text text-anchor="middle" x="293" y="-99.8" font-family="Times,serif" font-size="14.00" fill="#000000">ModalNuevaPage</text>
</g>
<!-- Tab1PageModule -->
<g id="node3" class="node">
<title>Tab1PageModule</title>
<polygon fill="#8dd3c7" stroke="#000000" points="301.5298,-187 298.5298,-191 277.5298,-191 274.5298,-187 186.4702,-187 186.4702,-151 301.5298,-151 301.5298,-187"/>
<text text-anchor="middle" x="244" y="-164.8" font-family="Times,serif" font-size="14.00" fill="#000000">Tab1PageModule</text>
</g>
<!-- ModalNuevaPage&#45;&gt;Tab1PageModule -->
<g id="edge1" class="edge">
<title>ModalNuevaPage&#45;&gt;Tab1PageModule</title>
<path fill="none" stroke="#000000" d="M268.3079,-122.1061C268.3079,-122.1061 268.3079,-140.991 268.3079,-140.991"/>
<polygon fill="#000000" stroke="#000000" points="264.8079,-140.9909 268.3079,-150.991 271.8079,-140.991 264.8079,-140.9909"/>
</g>
<!-- Tab1Page -->
<g id="node2" class="node">
<title>Tab1Page</title>
<polygon fill="#ffffb3" stroke="#000000" points="216.979,-122 145.021,-122 145.021,-86 216.979,-86 216.979,-122"/>
<text text-anchor="middle" x="181" y="-99.8" font-family="Times,serif" font-size="14.00" fill="#000000">Tab1Page</text>
</g>
<!-- Tab1Page&#45;&gt;Tab1PageModule -->
<g id="edge2" class="edge">
<title>Tab1Page&#45;&gt;Tab1PageModule</title>
<path fill="none" stroke="#000000" d="M201.6126,-122.1061C201.6126,-122.1061 201.6126,-140.991 201.6126,-140.991"/>
<polygon fill="#000000" stroke="#000000" points="198.1126,-140.9909 201.6126,-150.991 205.1126,-140.991 198.1126,-140.9909"/>
</g>
</g>
</svg>
