<?xml version="1.0" encoding="UTF-8" standalone="no"?>
<!DOCTYPE svg PUBLIC "-//W3C//DTD SVG 1.1//EN"
 "http://www.w3.org/Graphics/SVG/1.1/DTD/svg11.dtd">
<!-- Generated by graphviz version 2.40.1 (20161225.0304)
 -->
<!-- Title: dependencies Pages: 1 -->
<svg width="2088pt" height="284pt"
 viewBox="0.00 0.00 2088.00 284.00" xmlns="http://www.w3.org/2000/svg" xmlns:xlink="http://www.w3.org/1999/xlink">
<g id="graph0" class="graph" transform="scale(1 1) rotate(0) translate(4 280)">
<title>dependencies</title>
<polygon fill="#ffffff" stroke="transparent" points="-4,4 -4,-280 2084,-280 2084,4 -4,4"/>
<text text-anchor="start" x="1019.0091" y="-42.4" font-family="sans-serif" font-weight="bold" font-size="14.00" fill="#000000">Legend</text>
<polygon fill="#ffffb3" stroke="transparent" points="806,-10 806,-30 826,-30 826,-10 806,-10"/>
<text text-anchor="start" x="829.629" y="-15.4" font-family="sans-serif" font-size="14.00" fill="#000000"> &#160;Declarations</text>
<polygon fill="#8dd3c7" stroke="transparent" points="919,-10 919,-30 939,-30 939,-10 919,-10"/>
<text text-anchor="start" x="942.7251" y="-15.4" font-family="sans-serif" font-size="14.00" fill="#000000"> &#160;Module</text>
<polygon fill="#80b1d3" stroke="transparent" points="1005,-10 1005,-30 1025,-30 1025,-10 1005,-10"/>
<text text-anchor="start" x="1028.7812" y="-15.4" font-family="sans-serif" font-size="14.00" fill="#000000"> &#160;Bootstrap</text>
<polygon fill="#fdb462" stroke="transparent" points="1102,-10 1102,-30 1122,-30 1122,-10 1102,-10"/>
<text text-anchor="start" x="1125.6732" y="-15.4" font-family="sans-serif" font-size="14.00" fill="#000000"> &#160;Providers</text>
<polygon fill="#fb8072" stroke="transparent" points="1198,-10 1198,-30 1218,-30 1218,-10 1198,-10"/>
<text text-anchor="start" x="1221.7258" y="-15.4" font-family="sans-serif" font-size="14.00" fill="#000000"> &#160;Exports</text>
<g id="clust1" class="cluster">
<title>cluster_AppModule</title>
<polygon fill="none" stroke="#000000" stroke-dasharray="1,5" points="8,-70 8,-268 508,-268 508,-70 8,-70"/>
</g>
<g id="clust2" class="cluster">
<title>cluster_AppModule_declarations</title>
<polygon fill="none" stroke="#000000" points="378,-78 378,-130 500,-130 500,-78 378,-78"/>
</g>
<g id="clust4" class="cluster">
<title>cluster_AppModule_imports</title>
<polygon fill="none" stroke="#000000" points="226,-78 226,-130 370,-130 370,-78 226,-78"/>
</g>
<g id="clust6" class="cluster">
<title>cluster_AppModule_bootstrap</title>
<polygon fill="none" stroke="#000000" points="236,-208 236,-260 360,-260 360,-208 236,-208"/>
</g>
<g id="clust7" class="cluster">
<title>cluster_AppModule_providers</title>
<polygon fill="none" stroke="#000000" points="16,-78 16,-130 218,-130 218,-78 16,-78"/>
</g>
<g id="clust14" class="cluster">
<title>cluster_AyudaPageModule</title>
<polygon fill="none" stroke="#000000" stroke-dasharray="1,5" points="516,-70 516,-195 656,-195 656,-70 516,-70"/>
</g>
<g id="clust15" class="cluster">
<title>cluster_AyudaPageModule_declarations</title>
<polygon fill="none" stroke="#000000" points="538,-78 538,-130 634,-130 634,-78 538,-78"/>
</g>
<g id="clust21" class="cluster">
<title>cluster_InicioSesionPageModule</title>
<polygon fill="none" stroke="#000000" stroke-dasharray="1,5" points="664,-70 664,-195 836,-195 836,-70 664,-70"/>
</g>
<g id="clust22" class="cluster">
<title>cluster_InicioSesionPageModule_declarations</title>
<polygon fill="none" stroke="#000000" points="685,-78 685,-130 815,-130 815,-78 685,-78"/>
</g>
<g id="clust28" class="cluster">
<title>cluster_ModalMapaPageModule</title>
<polygon fill="none" stroke="#000000" stroke-dasharray="1,5" points="844,-70 844,-195 1016,-195 1016,-70 844,-70"/>
</g>
<g id="clust29" class="cluster">
<title>cluster_ModalMapaPageModule_declarations</title>
<polygon fill="none" stroke="#000000" points="873,-78 873,-130 1001,-130 1001,-78 873,-78"/>
</g>
<g id="clust35" class="cluster">
<title>cluster_ModalNuevaPageModule</title>
<polygon fill="none" stroke="#000000" stroke-dasharray="1,5" points="1164,-70 1164,-195 1340,-195 1340,-70 1164,-70"/>
</g>
<g id="clust36" class="cluster">
<title>cluster_ModalNuevaPageModule_declarations</title>
<polygon fill="none" stroke="#000000" points="1193,-78 1193,-130 1325,-130 1325,-78 1193,-78"/>
</g>
<g id="clust42" class="cluster">
<title>cluster_RegistroPageModule</title>
<polygon fill="none" stroke="#000000" stroke-dasharray="1,5" points="1488,-70 1488,-195 1638,-195 1638,-70 1488,-70"/>
</g>
<g id="clust43" class="cluster">
<title>cluster_RegistroPageModule_declarations</title>
<polygon fill="none" stroke="#000000" points="1510,-78 1510,-130 1616,-130 1616,-78 1510,-78"/>
</g>
<g id="clust49" class="cluster">
<title>cluster_Tab1PageModule</title>
<polygon fill="none" stroke="#000000" stroke-dasharray="1,5" points="1348,-70 1348,-195 1480,-195 1480,-70 1348,-70"/>
</g>
<g id="clust50" class="cluster">
<title>cluster_Tab1PageModule_declarations</title>
<polygon fill="none" stroke="#000000" points="1370,-78 1370,-130 1458,-130 1458,-78 1370,-78"/>
</g>
<g id="clust57" class="cluster">
<title>cluster_Tab2PageModule</title>
<polygon fill="none" stroke="#000000" stroke-dasharray="1,5" points="1646,-70 1646,-195 1778,-195 1778,-70 1646,-70"/>
</g>
<g id="clust58" class="cluster">
<title>cluster_Tab2PageModule_declarations</title>
<polygon fill="none" stroke="#000000" points="1668,-78 1668,-130 1756,-130 1756,-78 1668,-78"/>
</g>
<g id="clust64" class="cluster">
<title>cluster_Tab3PageModule</title>
<polygon fill="none" stroke="#000000" stroke-dasharray="1,5" points="1024,-70 1024,-195 1156,-195 1156,-70 1024,-70"/>
</g>
<g id="clust65" class="cluster">
<title>cluster_Tab3PageModule_declarations</title>
<polygon fill="none" stroke="#000000" points="1046,-78 1046,-130 1134,-130 1134,-78 1046,-78"/>
</g>
<g id="clust72" class="cluster">
<title>cluster_TabsPageModule</title>
<polygon fill="none" stroke="#000000" stroke-dasharray="1,5" points="1786,-70 1786,-195 2072,-195 2072,-70 1786,-70"/>
</g>
<g id="clust73" class="cluster">
<title>cluster_TabsPageModule_declarations</title>
<polygon fill="none" stroke="#000000" points="1978,-78 1978,-130 2064,-130 2064,-78 1978,-78"/>
</g>
<g id="clust75" class="cluster">
<title>cluster_TabsPageModule_imports</title>
<polygon fill="none" stroke="#000000" points="1794,-78 1794,-130 1970,-130 1970,-78 1794,-78"/>
</g>
<!-- AppComponent -->
<g id="node1" class="node">
<title>AppComponent</title>
<polygon fill="#ffffb3" stroke="#000000" points="491.9399,-122 386.0601,-122 386.0601,-86 491.9399,-86 491.9399,-122"/>
<text text-anchor="middle" x="439" y="-99.8" font-family="Times,serif" font-size="14.00" fill="#000000">AppComponent</text>
</g>
<!-- AppModule -->
<g id="node2" class="node">
<title>AppModule</title>
<polygon fill="#8dd3c7" stroke="#000000" points="339.6571,-187 336.6571,-191 315.6571,-191 312.6571,-187 256.3429,-187 256.3429,-151 339.6571,-151 339.6571,-187"/>
<text text-anchor="middle" x="298" y="-164.8" font-family="Times,serif" font-size="14.00" fill="#000000">AppModule</text>
</g>
<!-- AppComponent&#45;&gt;AppModule -->
<g id="edge1" class="edge">
<title>AppComponent&#45;&gt;AppModule</title>
<path fill="none" stroke="#000000" d="M439,-122.1061C439,-141.3391 439,-169 439,-169 439,-169 349.9229,-169 349.9229,-169"/>
<polygon fill="#000000" stroke="#000000" points="349.9229,-165.5001 339.9229,-169 349.9229,-172.5001 349.9229,-165.5001"/>
</g>
<!-- AppComponent  -->
<g id="node4" class="node">
<title>AppComponent </title>
<polygon fill="#80b1d3" stroke="#000000" points="352.439,-252 243.561,-252 243.561,-216 352.439,-216 352.439,-252"/>
<text text-anchor="middle" x="298" y="-229.8" font-family="Times,serif" font-size="14.00" fill="#000000">AppComponent </text>
</g>
<!-- AppModule&#45;&gt;AppComponent  -->
<g id="edge3" class="edge">
<title>AppModule&#45;&gt;AppComponent </title>
<path fill="none" stroke="#000000" stroke-dasharray="1,5" d="M298,-187.1061C298,-187.1061 298,-205.991 298,-205.991"/>
<polygon fill="#000000" stroke="#000000" points="294.5001,-205.9909 298,-215.991 301.5001,-205.991 294.5001,-205.9909"/>
</g>
<!-- AppRoutingModule -->
<g id="node3" class="node">
<title>AppRoutingModule</title>
<polygon fill="#8dd3c7" stroke="#000000" points="362.2744,-122 359.2744,-126 338.2744,-126 335.2744,-122 233.7256,-122 233.7256,-86 362.2744,-86 362.2744,-122"/>
<text text-anchor="middle" x="298" y="-99.8" font-family="Times,serif" font-size="14.00" fill="#000000">AppRoutingModule</text>
</g>
<!-- AppRoutingModule&#45;&gt;AppModule -->
<g id="edge2" class="edge">
<title>AppRoutingModule&#45;&gt;AppModule</title>
<path fill="none" stroke="#000000" d="M298,-122.1061C298,-122.1061 298,-140.991 298,-140.991"/>
<polygon fill="#000000" stroke="#000000" points="294.5001,-140.9909 298,-150.991 301.5001,-140.991 294.5001,-140.9909"/>
</g>
<!-- AutenticationService -->
<g id="node5" class="node">
<title>AutenticationService</title>
<ellipse fill="#fdb462" stroke="#000000" cx="117" cy="-104" rx="92.6112" ry="18"/>
<text text-anchor="middle" x="117" y="-99.8" font-family="Times,serif" font-size="14.00" fill="#000000">AutenticationService</text>
</g>
<!-- AutenticationService&#45;&gt;AppModule -->
<g id="edge4" class="edge">
<title>AutenticationService&#45;&gt;AppModule</title>
<path fill="none" stroke="#000000" d="M117,-122.1061C117,-141.3391 117,-169 117,-169 117,-169 246.02,-169 246.02,-169"/>
<polygon fill="#000000" stroke="#000000" points="246.0201,-172.5001 256.02,-169 246.02,-165.5001 246.0201,-172.5001"/>
</g>
<!-- AyudaPage -->
<g id="node6" class="node">
<title>AyudaPage</title>
<polygon fill="#ffffb3" stroke="#000000" points="626.0343,-122 545.9657,-122 545.9657,-86 626.0343,-86 626.0343,-122"/>
<text text-anchor="middle" x="586" y="-99.8" font-family="Times,serif" font-size="14.00" fill="#000000">AyudaPage</text>
</g>
<!-- AyudaPageModule -->
<g id="node7" class="node">
<title>AyudaPageModule</title>
<polygon fill="#8dd3c7" stroke="#000000" points="648.0828,-187 645.0828,-191 624.0828,-191 621.0828,-187 523.9172,-187 523.9172,-151 648.0828,-151 648.0828,-187"/>
<text text-anchor="middle" x="586" y="-164.8" font-family="Times,serif" font-size="14.00" fill="#000000">AyudaPageModule</text>
</g>
<!-- AyudaPage&#45;&gt;AyudaPageModule -->
<g id="edge5" class="edge">
<title>AyudaPage&#45;&gt;AyudaPageModule</title>
<path fill="none" stroke="#000000" d="M586,-122.1061C586,-122.1061 586,-140.991 586,-140.991"/>
<polygon fill="#000000" stroke="#000000" points="582.5001,-140.9909 586,-150.991 589.5001,-140.991 582.5001,-140.9909"/>
</g>
<!-- InicioSesionPage -->
<g id="node8" class="node">
<title>InicioSesionPage</title>
<polygon fill="#ffffb3" stroke="#000000" points="806.7008,-122 693.2992,-122 693.2992,-86 806.7008,-86 806.7008,-122"/>
<text text-anchor="middle" x="750" y="-99.8" font-family="Times,serif" font-size="14.00" fill="#000000">InicioSesionPage</text>
</g>
<!-- InicioSesionPageModule -->
<g id="node9" class="node">
<title>InicioSesionPageModule</title>
<polygon fill="#8dd3c7" stroke="#000000" points="828.2506,-187 825.2506,-191 804.2506,-191 801.2506,-187 671.7494,-187 671.7494,-151 828.2506,-151 828.2506,-187"/>
<text text-anchor="middle" x="750" y="-164.8" font-family="Times,serif" font-size="14.00" fill="#000000">InicioSesionPageModule</text>
</g>
<!-- InicioSesionPage&#45;&gt;InicioSesionPageModule -->
<g id="edge6" class="edge">
<title>InicioSesionPage&#45;&gt;InicioSesionPageModule</title>
<path fill="none" stroke="#000000" d="M750,-122.1061C750,-122.1061 750,-140.991 750,-140.991"/>
<polygon fill="#000000" stroke="#000000" points="746.5001,-140.9909 750,-150.991 753.5001,-140.991 746.5001,-140.9909"/>
</g>
<!-- ModalMapaPage -->
<g id="node10" class="node">
<title>ModalMapaPage</title>
<polygon fill="#ffffb3" stroke="#000000" points="992.636,-122 881.364,-122 881.364,-86 992.636,-86 992.636,-122"/>
<text text-anchor="middle" x="937" y="-99.8" font-family="Times,serif" font-size="14.00" fill="#000000">ModalMapaPage</text>
</g>
<!-- ModalMapaPageModule -->
<g id="node11" class="node">
<title>ModalMapaPageModule</title>
<polygon fill="#8dd3c7" stroke="#000000" points="1007.6853,-187 1004.6853,-191 983.6853,-191 980.6853,-187 852.3147,-187 852.3147,-151 1007.6853,-151 1007.6853,-187"/>
<text text-anchor="middle" x="930" y="-164.8" font-family="Times,serif" font-size="14.00" fill="#000000">ModalMapaPageModule</text>
</g>
<!-- ModalMapaPage&#45;&gt;ModalMapaPageModule -->
<g id="edge7" class="edge">
<title>ModalMapaPage&#45;&gt;ModalMapaPageModule</title>
<path fill="none" stroke="#000000" d="M937,-122.1061C937,-122.1061 937,-140.991 937,-140.991"/>
<polygon fill="#000000" stroke="#000000" points="933.5001,-140.9909 937,-150.991 940.5001,-140.991 933.5001,-140.9909"/>
</g>
<!-- Tab3PageModule -->
<g id="node21" class="node">
<title>Tab3PageModule</title>
<polygon fill="#8dd3c7" stroke="#000000" points="1147.5298,-187 1144.5298,-191 1123.5298,-191 1120.5298,-187 1032.4702,-187 1032.4702,-151 1147.5298,-151 1147.5298,-187"/>
<text text-anchor="middle" x="1090" y="-164.8" font-family="Times,serif" font-size="14.00" fill="#000000">Tab3PageModule</text>
</g>
<!-- ModalMapaPage&#45;&gt;Tab3PageModule -->
<g id="edge13" class="edge">
<title>ModalMapaPage&#45;&gt;Tab3PageModule</title>
<path fill="none" stroke="#000000" d="M992.8585,-104C1018.4249,-104 1043.1231,-104 1043.1231,-104 1043.1231,-104 1043.1231,-140.8939 1043.1231,-140.8939"/>
<polygon fill="#000000" stroke="#000000" points="1039.6231,-140.8938 1043.1231,-150.8939 1046.6231,-140.8939 1039.6231,-140.8938"/>
</g>
<!-- ModalNuevaPage -->
<g id="node12" class="node">
<title>ModalNuevaPage</title>
<polygon fill="#ffffb3" stroke="#000000" points="1317.2978,-122 1200.7022,-122 1200.7022,-86 1317.2978,-86 1317.2978,-122"/>
<text text-anchor="middle" x="1259" y="-99.8" font-family="Times,serif" font-size="14.00" fill="#000000">ModalNuevaPage</text>
</g>
<!-- ModalNuevaPageModule -->
<g id="node13" class="node">
<title>ModalNuevaPageModule</title>
<polygon fill="#8dd3c7" stroke="#000000" points="1331.8473,-187 1328.8473,-191 1307.8473,-191 1304.8473,-187 1172.1527,-187 1172.1527,-151 1331.8473,-151 1331.8473,-187"/>
<text text-anchor="middle" x="1252" y="-164.8" font-family="Times,serif" font-size="14.00" fill="#000000">ModalNuevaPageModule</text>
</g>
<!-- ModalNuevaPage&#45;&gt;ModalNuevaPageModule -->
<g id="edge8" class="edge">
<title>ModalNuevaPage&#45;&gt;ModalNuevaPageModule</title>
<path fill="none" stroke="#000000" d="M1259,-122.1061C1259,-122.1061 1259,-140.991 1259,-140.991"/>
<polygon fill="#000000" stroke="#000000" points="1255.5001,-140.9909 1259,-150.991 1262.5001,-140.991 1255.5001,-140.9909"/>
</g>
<!-- Tab1PageModule -->
<g id="node17" class="node">
<title>Tab1PageModule</title>
<polygon fill="#8dd3c7" stroke="#000000" points="1471.5298,-187 1468.5298,-191 1447.5298,-191 1444.5298,-187 1356.4702,-187 1356.4702,-151 1471.5298,-151 1471.5298,-187"/>
<text text-anchor="middle" x="1414" y="-164.8" font-family="Times,serif" font-size="14.00" fill="#000000">Tab1PageModule</text>
</g>
<!-- ModalNuevaPage&#45;&gt;Tab1PageModule -->
<g id="edge10" class="edge">
<title>ModalNuevaPage&#45;&gt;Tab1PageModule</title>
<path fill="none" stroke="#000000" d="M1317.176,-104C1342.7679,-104 1367.1231,-104 1367.1231,-104 1367.1231,-104 1367.1231,-140.8939 1367.1231,-140.8939"/>
<polygon fill="#000000" stroke="#000000" points="1363.6231,-140.8938 1367.1231,-150.8939 1370.6231,-140.8939 1363.6231,-140.8938"/>
</g>
<!-- RegistroPage -->
<g id="node14" class="node">
<title>RegistroPage</title>
<polygon fill="#ffffb3" stroke="#000000" points="1608.1501,-122 1517.8499,-122 1517.8499,-86 1608.1501,-86 1608.1501,-122"/>
<text text-anchor="middle" x="1563" y="-99.8" font-family="Times,serif" font-size="14.00" fill="#000000">RegistroPage</text>
</g>
<!-- RegistroPageModule -->
<g id="node15" class="node">
<title>RegistroPageModule</title>
<polygon fill="#8dd3c7" stroke="#000000" points="1630.1993,-187 1627.1993,-191 1606.1993,-191 1603.1993,-187 1495.8007,-187 1495.8007,-151 1630.1993,-151 1630.1993,-187"/>
<text text-anchor="middle" x="1563" y="-164.8" font-family="Times,serif" font-size="14.00" fill="#000000">RegistroPageModule</text>
</g>
<!-- RegistroPage&#45;&gt;RegistroPageModule -->
<g id="edge9" class="edge">
<title>RegistroPage&#45;&gt;RegistroPageModule</title>
<path fill="none" stroke="#000000" d="M1563,-122.1061C1563,-122.1061 1563,-140.991 1563,-140.991"/>
<polygon fill="#000000" stroke="#000000" points="1559.5001,-140.9909 1563,-150.991 1566.5001,-140.991 1559.5001,-140.9909"/>
</g>
<!-- Tab1Page -->
<g id="node16" class="node">
<title>Tab1Page</title>
<polygon fill="#ffffb3" stroke="#000000" points="1449.979,-122 1378.021,-122 1378.021,-86 1449.979,-86 1449.979,-122"/>
<text text-anchor="middle" x="1414" y="-99.8" font-family="Times,serif" font-size="14.00" fill="#000000">Tab1Page</text>
</g>
<!-- Tab1Page&#45;&gt;Tab1PageModule -->
<g id="edge11" class="edge">
<title>Tab1Page&#45;&gt;Tab1PageModule</title>
<path fill="none" stroke="#000000" d="M1414,-122.1061C1414,-122.1061 1414,-140.991 1414,-140.991"/>
<polygon fill="#000000" stroke="#000000" points="1410.5001,-140.9909 1414,-150.991 1417.5001,-140.991 1410.5001,-140.9909"/>
</g>
<!-- Tab2Page -->
<g id="node18" class="node">
<title>Tab2Page</title>
<polygon fill="#ffffb3" stroke="#000000" points="1747.979,-122 1676.021,-122 1676.021,-86 1747.979,-86 1747.979,-122"/>
<text text-anchor="middle" x="1712" y="-99.8" font-family="Times,serif" font-size="14.00" fill="#000000">Tab2Page</text>
</g>
<!-- Tab2PageModule -->
<g id="node19" class="node">
<title>Tab2PageModule</title>
<polygon fill="#8dd3c7" stroke="#000000" points="1769.5298,-187 1766.5298,-191 1745.5298,-191 1742.5298,-187 1654.4702,-187 1654.4702,-151 1769.5298,-151 1769.5298,-187"/>
<text text-anchor="middle" x="1712" y="-164.8" font-family="Times,serif" font-size="14.00" fill="#000000">Tab2PageModule</text>
</g>
<!-- Tab2Page&#45;&gt;Tab2PageModule -->
<g id="edge12" class="edge">
<title>Tab2Page&#45;&gt;Tab2PageModule</title>
<path fill="none" stroke="#000000" d="M1712,-122.1061C1712,-122.1061 1712,-140.991 1712,-140.991"/>
<polygon fill="#000000" stroke="#000000" points="1708.5001,-140.9909 1712,-150.991 1715.5001,-140.991 1708.5001,-140.9909"/>
</g>
<!-- Tab3Page -->
<g id="node20" class="node">
<title>Tab3Page</title>
<polygon fill="#ffffb3" stroke="#000000" points="1125.979,-122 1054.021,-122 1054.021,-86 1125.979,-86 1125.979,-122"/>
<text text-anchor="middle" x="1090" y="-99.8" font-family="Times,serif" font-size="14.00" fill="#000000">Tab3Page</text>
</g>
<!-- Tab3Page&#45;&gt;Tab3PageModule -->
<g id="edge14" class="edge">
<title>Tab3Page&#45;&gt;Tab3PageModule</title>
<path fill="none" stroke="#000000" d="M1090,-122.1061C1090,-122.1061 1090,-140.991 1090,-140.991"/>
<polygon fill="#000000" stroke="#000000" points="1086.5001,-140.9909 1090,-150.991 1093.5001,-140.991 1086.5001,-140.9909"/>
</g>
<!-- TabsPage -->
<g id="node22" class="node">
<title>TabsPage</title>
<polygon fill="#ffffb3" stroke="#000000" points="2056.4249,-122 1985.5751,-122 1985.5751,-86 2056.4249,-86 2056.4249,-122"/>
<text text-anchor="middle" x="2021" y="-99.8" font-family="Times,serif" font-size="14.00" fill="#000000">TabsPage</text>
</g>
<!-- TabsPageModule -->
<g id="node23" class="node">
<title>TabsPageModule</title>
<polygon fill="#8dd3c7" stroke="#000000" points="2000.9734,-187 1997.9734,-191 1976.9734,-191 1973.9734,-187 1887.0266,-187 1887.0266,-151 2000.9734,-151 2000.9734,-187"/>
<text text-anchor="middle" x="1944" y="-164.8" font-family="Times,serif" font-size="14.00" fill="#000000">TabsPageModule</text>
</g>
<!-- TabsPage&#45;&gt;TabsPageModule -->
<g id="edge15" class="edge">
<title>TabsPage&#45;&gt;TabsPageModule</title>
<path fill="none" stroke="#000000" d="M1993.3875,-122.1061C1993.3875,-122.1061 1993.3875,-140.991 1993.3875,-140.991"/>
<polygon fill="#000000" stroke="#000000" points="1989.8875,-140.9909 1993.3875,-150.991 1996.8875,-140.991 1989.8875,-140.9909"/>
</g>
<!-- TabsPageRoutingModule -->
<g id="node24" class="node">
<title>TabsPageRoutingModule</title>
<polygon fill="#8dd3c7" stroke="#000000" points="1961.5912,-122 1958.5912,-126 1937.5912,-126 1934.5912,-122 1802.4088,-122 1802.4088,-86 1961.5912,-86 1961.5912,-122"/>
<text text-anchor="middle" x="1882" y="-99.8" font-family="Times,serif" font-size="14.00" fill="#000000">TabsPageRoutingModule</text>
</g>
<!-- TabsPageRoutingModule&#45;&gt;TabsPageModule -->
<g id="edge16" class="edge">
<title>TabsPageRoutingModule&#45;&gt;TabsPageModule</title>
<path fill="none" stroke="#000000" d="M1924.2795,-122.1061C1924.2795,-122.1061 1924.2795,-140.991 1924.2795,-140.991"/>
<polygon fill="#000000" stroke="#000000" points="1920.7795,-140.9909 1924.2795,-150.991 1927.7795,-140.991 1920.7795,-140.9909"/>
</g>
</g>
</svg>
