<?xml version="1.0" encoding="UTF-8" standalone="no"?>
<!DOCTYPE svg PUBLIC "-//W3C//DTD SVG 1.1//EN"
 "http://www.w3.org/Graphics/SVG/1.1/DTD/svg11.dtd">
<!-- Generated by graphviz version 2.40.1 (20161225.0304)
 -->
<!-- Title: dependencies Pages: 1 -->
<svg width="504pt" height="211pt"
 viewBox="0.00 0.00 504.00 211.00" xmlns="http://www.w3.org/2000/svg" xmlns:xlink="http://www.w3.org/1999/xlink">
<g id="graph0" class="graph" transform="scale(1 1) rotate(0) translate(4 207)">
<title>dependencies</title>
<polygon fill="#ffffff" stroke="transparent" points="-4,4 -4,-207 500,-207 500,4 -4,4"/>
<text text-anchor="start" x="227.0091" y="-42.4" font-family="sans-serif" font-weight="bold" font-size="14.00" fill="#000000">Legend</text>
<polygon fill="#ffffb3" stroke="transparent" points="14,-10 14,-30 34,-30 34,-10 14,-10"/>
<text text-anchor="start" x="37.629" y="-15.4" font-family="sans-serif" font-size="14.00" fill="#000000"> &#160;Declarations</text>
<polygon fill="#8dd3c7" stroke="transparent" points="127,-10 127,-30 147,-30 147,-10 127,-10"/>
<text text-anchor="start" x="150.7251" y="-15.4" font-family="sans-serif" font-size="14.00" fill="#000000"> &#160;Module</text>
<polygon fill="#80b1d3" stroke="transparent" points="213,-10 213,-30 233,-30 233,-10 213,-10"/>
<text text-anchor="start" x="236.7812" y="-15.4" font-family="sans-serif" font-size="14.00" fill="#000000"> &#160;Bootstrap</text>
<polygon fill="#fdb462" stroke="transparent" points="310,-10 310,-30 330,-30 330,-10 310,-10"/>
<text text-anchor="start" x="333.6732" y="-15.4" font-family="sans-serif" font-size="14.00" fill="#000000"> &#160;Providers</text>
<polygon fill="#fb8072" stroke="transparent" points="406,-10 406,-30 426,-30 426,-10 406,-10"/>
<text text-anchor="start" x="429.7258" y="-15.4" font-family="sans-serif" font-size="14.00" fill="#000000"> &#160;Exports</text>
<g id="clust1" class="cluster">
<title>cluster_Tab3PageModule</title>
<polygon fill="none" stroke="#000000" stroke-dasharray="1,5" points="131,-70 131,-195 365,-195 365,-70 131,-70"/>
</g>
<g id="clust2" class="cluster">
<title>cluster_Tab3PageModule_declarations</title>
<polygon fill="none" stroke="#000000" points="139,-78 139,-130 357,-130 357,-78 139,-78"/>
</g>
<!-- ModalMapaPage -->
<g id="node1" class="node">
<title>ModalMapaPage</title>
<polygon fill="#ffffb3" stroke="#000000" points="348.636,-122 237.364,-122 237.364,-86 348.636,-86 348.636,-122"/>
<text text-anchor="middle" x="293" y="-99.8" font-family="Times,serif" font-size="14.00" fill="#000000">ModalMapaPage</text>
</g>
<!-- Tab3PageModule -->
<g id="node3" class="node">
<title>Tab3PageModule</title>
<polygon fill="#8dd3c7" stroke="#000000" points="302.5298,-187 299.5298,-191 278.5298,-191 275.5298,-187 187.4702,-187 187.4702,-151 302.5298,-151 302.5298,-187"/>
<text text-anchor="middle" x="245" y="-164.8" font-family="Times,serif" font-size="14.00" fill="#000000">Tab3PageModule</text>
</g>
<!-- ModalMapaPage&#45;&gt;Tab3PageModule -->
<g id="edge1" class="edge">
<title>ModalMapaPage&#45;&gt;Tab3PageModule</title>
<path fill="none" stroke="#000000" d="M269.9734,-122.1061C269.9734,-122.1061 269.9734,-140.991 269.9734,-140.991"/>
<polygon fill="#000000" stroke="#000000" points="266.4734,-140.9909 269.9734,-150.991 273.4734,-140.991 266.4734,-140.9909"/>
</g>
<!-- Tab3Page -->
<g id="node2" class="node">
<title>Tab3Page</title>
<polygon fill="#ffffb3" stroke="#000000" points="218.979,-122 147.021,-122 147.021,-86 218.979,-86 218.979,-122"/>
<text text-anchor="middle" x="183" y="-99.8" font-family="Times,serif" font-size="14.00" fill="#000000">Tab3Page</text>
</g>
<!-- Tab3Page&#45;&gt;Tab3PageModule -->
<g id="edge2" class="edge">
<title>Tab3Page&#45;&gt;Tab3PageModule</title>
<path fill="none" stroke="#000000" d="M203.1126,-122.1061C203.1126,-122.1061 203.1126,-140.991 203.1126,-140.991"/>
<polygon fill="#000000" stroke="#000000" points="199.6126,-140.9909 203.1126,-150.991 206.6126,-140.991 199.6126,-140.9909"/>
</g>
</g>
</svg>
